<svg version="1.1" id="Layer_1" xmlns="http://www.w3.org/2000/svg" xmlns:xlink="http://www.w3.org/1999/xlink" x="0px" y="0px"
	 width="100%" viewBox="0 0 657 340" enable-background="new 0 0 657 340" xml:space="preserve">
<path fill="#32312F" opacity="1.000000" stroke="none" 
	d="
M658.000000,339.609619 
	C656.475464,340.383179 654.951111,340.960785 653.426453,340.961517 
	C565.112244,341.004669 476.798004,341.000000 388.483765,341.000000 
	C259.345032,341.000000 130.206284,341.000000 1.033772,341.000000 
	C1.033772,227.713684 1.033772,114.427368 1.033772,1.070523 
	C219.905624,1.070523 438.811279,1.070523 658.000000,1.070523 
	C658.000000,113.714668 658.000000,226.429565 658.000000,339.609619 
M322.634125,251.390640 
	C322.754791,250.913254 322.980621,250.435928 322.980988,249.958450 
	C322.997314,228.864014 323.010651,207.769501 322.949402,186.675217 
	C322.945831,185.446899 322.318848,184.220367 321.597382,182.989594 
	C321.597382,182.989594 321.212769,182.993851 320.821991,182.254578 
	C315.742920,181.675140 310.663879,181.095703 305.107849,180.461868 
	C305.107849,193.722488 305.107849,205.830460 305.107849,219.203629 
	C303.616180,217.908432 302.787720,217.468369 302.364471,216.779358 
	C296.686066,207.535904 290.963379,198.316879 285.472809,188.962021 
	C282.912811,184.600235 280.720703,181.235107 274.505371,180.687439 
	C265.656403,179.907715 260.712280,182.817856 258.538452,191.160370 
	C258.405457,191.670776 257.806824,192.059860 256.953217,193.055496 
	C260.103088,193.546783 263.029480,194.003204 266.291534,194.511993 
	C266.291534,214.312881 266.291534,234.067093 266.291534,253.851349 
	C271.720062,253.851349 276.769348,253.851349 282.017303,253.851349 
	C282.017303,240.829498 282.017303,228.211075 282.017303,215.592651 
	C282.422028,215.369339 282.826782,215.146027 283.231506,214.922699 
	C285.115845,217.747360 287.094513,220.514236 288.866119,223.407913 
	C293.438812,230.876846 298.185974,238.257523 302.357391,245.947968 
	C305.988831,252.642822 312.296661,256.000366 319.629089,254.046829 
	C320.285583,253.871918 320.678925,252.709335 321.617310,251.999649 
	C321.617310,251.999649 322.039825,251.983154 322.634125,251.390640 
M470.791351,251.015976 
	C470.791351,251.015976 470.716644,250.945557 470.216858,251.924362 
	C470.212067,252.290665 470.207275,252.656982 470.065369,253.541916 
	C470.714447,253.671341 471.363556,253.800751 472.925720,254.141846 
	C477.517548,254.141846 482.109375,254.141846 486.988983,254.141846 
	C486.988983,248.323929 487.071838,243.030441 486.961273,237.741028 
	C486.880859,233.894730 488.183258,231.375473 492.420471,232.102600 
	C497.144867,232.913361 501.505493,231.581131 505.842651,230.287201 
	C512.498230,228.301605 516.784973,222.929733 519.266724,217.234543 
	C521.127747,212.963928 520.039001,207.354385 520.044617,202.340714 
	C520.054199,193.803360 513.658936,184.335770 505.579773,182.571365 
	C494.535980,180.159531 483.273926,178.754196 471.277649,182.430298 
	C470.850311,183.860321 470.056610,185.288879 470.050842,186.720627 
	C469.969910,206.786072 469.981415,226.851990 470.029236,246.917664 
	C470.032562,248.315674 470.499023,249.712585 470.791351,251.015976 
M457.790192,207.496811 
	C457.554108,204.693085 457.318024,201.889343 456.758057,198.777100 
	C456.758057,198.777100 456.412048,198.493561 456.467438,197.773636 
	C454.270966,194.365921 452.651398,190.329773 449.761688,187.677277 
	C443.106964,181.568695 434.763153,180.296890 425.915497,180.923767 
	C420.082428,181.337067 414.201965,181.081955 409.005615,181.121124 
	C409.005615,206.341736 409.005615,230.146225 409.005615,253.958038 
	C414.920593,253.958038 420.180603,253.958038 426.027771,253.958038 
	C426.027771,243.968948 426.027771,234.275345 426.027771,223.947128 
	C427.421906,224.747284 428.391724,224.961548 428.697937,225.531998 
	C432.227661,232.108200 435.448120,238.859955 439.200500,245.303146 
	C441.086182,248.541092 443.394501,252.920258 446.392059,253.806870 
	C451.210205,255.231934 456.758301,254.189209 463.263428,254.189209 
	C458.080231,245.407211 453.920044,237.503860 448.881683,230.206894 
	C446.593018,226.892181 445.168549,224.999054 449.012909,222.079041 
	C453.415375,218.735138 455.517395,213.904663 456.733673,208.219803 
	C456.733673,208.219803 457.098755,207.895248 457.790192,207.496811 
M376.209229,254.390594 
	C377.743591,253.666473 379.287842,252.962494 380.810638,252.214798 
	C387.908203,248.729874 392.572815,243.334656 394.216278,235.444489 
	C395.305328,230.216019 396.759247,225.059982 397.727295,219.812027 
	C398.031738,218.161530 397.330902,216.310333 397.012756,214.565079 
	C396.757843,213.166641 396.219910,211.803635 396.100525,210.399979 
	C395.853638,207.497650 396.644348,204.189728 395.512726,201.739258 
	C392.064178,194.271622 388.812744,186.333893 380.050690,183.243179 
	C377.110748,182.206161 374.120087,181.049576 371.063965,180.679230 
	C367.996399,180.307495 364.811188,181.054703 361.690155,180.946518 
	C354.493988,180.697052 348.385498,183.765640 343.672577,188.456390 
	C336.509033,195.586197 334.869354,205.370895 334.342072,215.000427 
	C334.036316,220.583344 335.319458,226.253281 336.254272,232.215240 
	C336.254272,232.215240 336.651001,232.509735 336.665009,233.214035 
	C337.525543,235.830765 337.978149,238.682358 339.323883,241.019730 
	C343.191406,247.737122 348.343414,253.049011 356.773987,254.737396 
	C356.773987,254.737396 357.086365,255.080627 357.416138,255.715668 
	C363.264069,255.489578 369.112000,255.263489 375.248077,254.750565 
	C375.248077,254.750565 375.514496,254.443420 376.209229,254.390594 
M182.271225,274.703979 
	C183.341522,274.068573 185.251129,273.541321 185.349121,272.780670 
	C186.123581,266.768951 194.364273,264.816650 193.348724,257.884094 
	C193.283661,257.439911 194.423111,256.819244 195.002243,256.280670 
	C194.584595,256.212494 194.166962,256.144287 193.749313,256.076111 
	C193.749313,253.307724 193.749313,250.539352 193.749313,247.770966 
	C193.282242,244.225174 189.256943,241.133438 194.197189,236.826065 
	C197.046692,234.341629 198.703247,230.523682 201.055756,227.426727 
	C204.997665,222.237411 205.205429,216.363297 205.227707,210.135529 
	C205.256561,202.060410 197.486115,188.742981 190.014221,186.493164 
	C179.223190,183.243881 168.768707,183.052750 159.450424,191.025330 
	C149.470413,199.564087 148.085464,213.457672 153.159180,223.833893 
	C155.558334,228.740356 159.405991,232.933533 162.541595,237.488266 
	C163.377579,238.702652 164.926086,240.434113 164.577637,241.286133 
	C162.843231,245.527039 161.576599,249.625168 162.853058,254.296265 
	C163.146973,255.371765 161.970688,256.849030 161.310165,258.557312 
	C167.198944,264.886078 168.590149,277.258636 182.271225,274.703979 
M142.399963,182.976776 
	C145.907898,185.333069 147.424500,190.576294 153.711502,190.332214 
	C152.100006,183.189819 145.387619,180.679932 141.882004,175.761169 
	C141.467407,175.179428 139.531250,175.682114 137.393280,175.682114 
	C139.350174,178.613052 140.626770,180.525085 142.399963,182.976776 
M216.101044,178.656097 
	C216.429337,177.676620 216.757645,176.697128 217.085938,175.717636 
	C215.952972,175.854630 214.432037,175.571396 213.752136,176.199097 
	C210.220856,179.459351 206.800171,182.858521 203.588226,186.431580 
	C202.822174,187.283752 203.002411,188.986572 202.747391,190.298141 
	C203.284668,190.603683 203.821960,190.909225 204.359253,191.214767 
	C208.239502,187.267990 212.119766,183.321198 216.101044,178.656097 
M211.153625,211.472336 
	C211.925995,212.007507 212.687714,212.987717 213.472458,213.006485 
	C219.062485,213.140335 224.657211,213.077850 230.469360,213.077850 
	C228.393661,209.719757 218.626251,208.728012 211.153625,211.472336 
M128.946930,210.000992 
	C127.871223,210.620865 126.795509,211.240753 125.719803,211.860626 
	C125.858826,212.190063 125.997849,212.519485 126.136871,212.848923 
	C132.087448,212.848923 138.038025,212.848923 143.988602,212.848923 
	C144.134033,212.457291 144.279480,212.065659 144.424927,211.674026 
	C143.030334,211.115433 141.662094,210.172394 140.235931,210.074722 
	C136.793030,209.838943 133.323059,209.998123 128.946930,210.000992 
M176.831680,163.717224 
	C176.940613,168.539810 177.049561,173.362381 177.158508,178.184967 
	C177.657898,178.143387 178.157303,178.101807 178.656693,178.060211 
	C178.656693,172.069473 178.656693,166.078735 178.656693,160.087997 
	C178.318008,160.038467 177.979340,159.988937 177.640656,159.939407 
	C177.371735,160.880173 177.102814,161.820953 176.831680,163.717224 
z"/>
<path fill="#FDFDFD" opacity="1.000000" stroke="none" 
	d="
M321.194458,252.005463 
	C320.678925,252.709335 320.285583,253.871918 319.629089,254.046829 
	C312.296661,256.000366 305.988831,252.642822 302.357391,245.947968 
	C298.185974,238.257523 293.438812,230.876846 288.866119,223.407913 
	C287.094513,220.514236 285.115845,217.747360 283.231506,214.922699 
	C282.826782,215.146027 282.422028,215.369339 282.017303,215.592651 
	C282.017303,228.211075 282.017303,240.829498 282.017303,253.851349 
	C276.769348,253.851349 271.720062,253.851349 266.291534,253.851349 
	C266.291534,234.067093 266.291534,214.312881 266.291534,194.511993 
	C263.029480,194.003204 260.103088,193.546783 256.953217,193.055496 
	C257.806824,192.059860 258.405457,191.670776 258.538452,191.160370 
	C260.712280,182.817856 265.656403,179.907715 274.505371,180.687439 
	C280.720703,181.235107 282.912811,184.600235 285.472809,188.962021 
	C290.963379,198.316879 296.686066,207.535904 302.364471,216.779358 
	C302.787720,217.468369 303.616180,217.908432 305.107849,219.203629 
	C305.107849,205.830460 305.107849,193.722488 305.107849,180.461868 
	C310.663879,181.095703 315.742920,181.675140 320.928284,183.085785 
	C321.087891,206.613159 321.141205,229.309326 321.194458,252.005463 
z"/>
<path fill="#FDFDFD" opacity="1.000000" stroke="none" 
	d="
M335.887573,231.884048 
	C335.319458,226.253281 334.036316,220.583344 334.342072,215.000427 
	C334.869354,205.370895 336.509033,195.586197 343.672577,188.456390 
	C348.385498,183.765640 354.493988,180.697052 361.690155,180.946518 
	C364.811188,181.054703 367.996399,180.307495 371.063965,180.679230 
	C374.120087,181.049576 377.110748,182.206161 380.050690,183.243179 
	C388.812744,186.333893 392.064178,194.271622 395.512726,201.739258 
	C396.644348,204.189728 395.853638,207.497650 396.100525,210.399979 
	C396.219910,211.803635 396.757843,213.166641 397.012756,214.565079 
	C397.330902,216.310333 398.031738,218.161530 397.727295,219.812027 
	C396.759247,225.059982 395.305328,230.216019 394.216278,235.444489 
	C392.572815,243.334656 387.908203,248.729874 380.810638,252.214798 
	C379.287842,252.962494 377.743591,253.666473 375.613556,254.277817 
	C374.741974,254.230133 374.466064,254.295242 374.190155,254.360336 
	C374.446747,254.586029 374.703339,254.811707 374.959930,255.037384 
	C369.112000,255.263489 363.264069,255.489578 357.531250,255.336929 
	C357.682281,254.733688 357.718201,254.509171 357.754089,254.284668 
	C357.335236,254.311310 356.916412,254.337967 356.497559,254.364624 
	C348.343414,253.049011 343.191406,247.737122 339.323883,241.019730 
	C337.978149,238.682358 337.525543,235.830765 336.777710,232.620453 
	C336.818542,231.772247 336.746643,231.517654 336.674744,231.263046 
	C336.412354,231.470047 336.149963,231.677048 335.887573,231.884048 
M378.295166,210.588882 
	C377.422943,207.023132 377.015564,203.253281 375.562073,199.942719 
	C373.699310,195.699951 369.899231,194.666016 365.458160,195.822067 
	C364.700012,196.019409 363.777100,195.536713 362.992249,195.688507 
	C361.413300,195.993942 359.404785,196.045029 358.405670,197.038193 
	C354.293945,201.125397 352.242371,206.353622 352.220184,212.084946 
	C352.197601,217.919205 352.652832,223.769226 353.175171,229.587540 
	C353.635803,234.718491 359.552429,241.309708 363.860382,241.922745 
	C369.284607,242.694611 374.419647,239.878784 377.011078,233.923248 
	C378.110962,231.395554 377.200684,227.933289 378.444489,225.540619 
	C381.016449,220.593048 380.158936,215.859299 378.295166,210.588882 
z"/>
<path fill="#FCFCFC" opacity="1.000000" stroke="none" 
	d="
M457.081940,199.085617 
	C457.318024,201.889343 457.554108,204.693085 457.370514,207.433868 
	C456.745178,207.747452 456.539490,208.123962 456.333832,208.500473 
	C455.517395,213.904663 453.415375,218.735138 449.012909,222.079041 
	C445.168549,224.999054 446.593018,226.892181 448.881683,230.206894 
	C453.920044,237.503860 458.080231,245.407211 463.263428,254.189209 
	C456.758301,254.189209 451.210205,255.231934 446.392059,253.806870 
	C443.394501,252.920258 441.086182,248.541092 439.200500,245.303146 
	C435.448120,238.859955 432.227661,232.108200 428.697937,225.531998 
	C428.391724,224.961548 427.421906,224.747284 426.027771,223.947128 
	C426.027771,234.275345 426.027771,243.968948 426.027771,253.958038 
	C420.180603,253.958038 414.920593,253.958038 409.005615,253.958038 
	C409.005615,230.146225 409.005615,206.341736 409.005615,181.121124 
	C414.201965,181.081955 420.082428,181.337067 425.915497,180.923767 
	C434.763153,180.296890 443.106964,181.568695 449.761688,187.677277 
	C452.651398,190.329773 454.270966,194.365921 456.308472,198.388794 
	C456.220612,199.283432 456.291748,199.562897 456.362915,199.842346 
	C456.602600,199.590103 456.842255,199.337860 457.081940,199.085617 
M427.773407,218.200790 
	C429.714020,217.553650 431.755127,217.112228 433.576874,216.221878 
	C439.726837,213.216187 440.279938,207.371094 439.470154,201.832687 
	C438.917633,198.053833 435.619995,196.152008 431.265015,195.399490 
	C426.445129,194.566635 425.795135,194.272446 425.697083,199.157150 
	C425.570160,205.481308 425.581085,211.808212 425.101990,218.526459 
	C425.313965,218.985184 425.525909,219.443909 425.737885,219.902618 
	C426.187439,219.323273 426.636993,218.743912 427.773407,218.200790 
z"/>
<path fill="#FEFEFE" opacity="1.000000" stroke="none" 
	d="
M470.202484,253.023285 
	C470.207275,252.656982 470.212067,252.290665 470.774414,251.775360 
	C471.552979,250.697678 471.966492,249.769058 471.966858,248.840271 
	C471.975128,227.606918 471.938354,206.373566 471.933838,184.777191 
	C471.996796,183.688446 472.035889,182.962708 472.075012,182.236969 
	C483.273926,178.754196 494.535980,180.159531 505.579773,182.571365 
	C513.658936,184.335770 520.054199,193.803360 520.044617,202.340714 
	C520.039001,207.354385 521.127747,212.963928 519.266724,217.234543 
	C516.784973,222.929733 512.498230,228.301605 505.842651,230.287201 
	C501.505493,231.581131 497.144867,232.913361 492.420471,232.102600 
	C488.183258,231.375473 486.880859,233.894730 486.961273,237.741028 
	C487.071838,243.030441 486.988983,248.323929 486.988983,254.141846 
	C482.109375,254.141846 477.517548,254.141846 472.203979,253.818344 
	C471.055664,253.337662 470.629059,253.180466 470.202484,253.023285 
M486.981720,209.424866 
	C486.984314,211.087769 487.088593,212.758118 486.967590,214.411972 
	C486.740356,217.517105 487.909485,218.880783 491.200439,218.916977 
	C495.878204,218.968384 500.415680,216.230362 502.571503,211.488251 
	C505.278137,205.534546 504.700104,201.636795 498.049744,196.332932 
	C495.661072,194.427872 490.950073,195.434692 486.981720,195.084625 
	C486.981720,200.492966 486.981720,204.472504 486.981720,209.424866 
z"/>
<path fill="#F3F3F3" opacity="1.000000" stroke="none" 
	d="
M182.091309,275.027130 
	C168.590149,277.258636 167.198944,264.886078 161.310165,258.557312 
	C161.970688,256.849030 163.146973,255.371765 162.853058,254.296265 
	C161.576599,249.625168 162.843231,245.527039 164.577637,241.286133 
	C164.926086,240.434113 163.377579,238.702652 162.541595,237.488266 
	C159.405991,232.933533 155.558334,228.740356 153.159180,223.833893 
	C148.085464,213.457672 149.470413,199.564087 159.450424,191.025330 
	C168.768707,183.052750 179.223190,183.243881 190.014221,186.493164 
	C197.486115,188.742981 205.256561,202.060410 205.227707,210.135529 
	C205.205429,216.363297 204.997665,222.237411 201.055756,227.426727 
	C198.703247,230.523682 197.046692,234.341629 194.197189,236.826065 
	C189.256943,241.133438 193.282242,244.225174 193.749313,247.770966 
	C193.749313,250.539352 193.749313,253.307724 193.749313,256.076111 
	C194.166962,256.144287 194.584595,256.212494 195.002243,256.280670 
	C194.423111,256.819244 193.283661,257.439911 193.348724,257.884094 
	C194.364273,264.816650 186.123581,266.768951 185.349121,272.780670 
	C185.251129,273.541321 183.341522,274.068573 182.091309,275.027130 
M184.081848,188.350571 
	C181.440109,187.938614 178.610626,186.716446 176.194107,187.276428 
	C170.434891,188.611023 165.247772,190.834213 160.571457,195.256561 
	C154.469131,201.027512 151.952301,213.716415 156.156906,220.888138 
	C159.907120,227.284836 164.356888,233.271378 168.497955,239.438919 
	C168.933609,239.365601 169.369263,239.292297 169.804916,239.218994 
	C169.996887,237.782028 170.678192,236.197952 170.297913,234.933029 
	C168.438370,228.747894 166.194916,222.678055 164.342667,216.490952 
	C163.993439,215.324387 164.803467,213.810791 165.192703,211.895660 
	C166.685608,213.179230 167.637131,213.997314 168.668854,214.884354 
	C170.220810,213.660919 171.729355,212.471680 172.887772,211.558487 
	C174.718948,213.167236 176.389313,215.748825 177.849365,215.634888 
	C179.666870,215.493088 181.310791,213.126236 182.629074,212.047928 
	C184.342896,212.415024 185.923553,212.859756 187.534653,213.062653 
	C188.677170,213.206558 190.460800,212.552155 190.887802,213.095444 
	C191.556198,213.945816 191.713379,215.616577 191.399414,216.749191 
	C189.910950,222.118652 188.100037,227.398453 186.597046,232.764282 
	C186.036194,234.766510 186.000381,236.915817 185.725159,238.998062 
	C186.291565,239.096420 186.857956,239.194778 187.424347,239.293137 
	C191.672791,233.119812 196.546555,227.273636 199.995148,220.681839 
	C203.497253,213.987717 202.568283,206.511520 198.988983,199.984055 
	C195.927216,194.400406 190.920532,190.471191 184.081848,188.350571 
M171.156357,227.578430 
	C172.578079,231.444061 173.999786,235.309708 175.472534,239.314056 
	C177.094833,239.225845 179.382797,239.101425 181.347916,238.994553 
	C181.690475,237.117889 181.881958,235.578278 182.260757,234.086197 
	C183.381378,229.672348 184.662445,225.297745 185.710953,220.867599 
	C186.397278,217.967712 183.809769,216.416580 182.315414,217.643768 
	C179.133224,220.257004 176.833481,220.241837 173.890335,217.691162 
	C173.411285,217.276001 171.677414,217.912125 170.811279,218.492065 
	C170.307938,218.829102 170.154739,220.044235 170.233002,220.825287 
	C170.433060,222.822418 170.851013,224.797729 171.156357,227.578430 
M172.432327,256.235291 
	C170.077652,257.879333 166.039825,258.222565 167.490067,262.839050 
	C169.704758,262.839050 172.005981,262.839050 173.578751,262.839050 
	C177.422363,257.189514 183.889816,257.997375 188.447845,255.297043 
	C188.447845,254.040451 188.447845,252.679153 188.447845,251.284592 
	C183.184097,253.009384 178.181290,254.648682 172.432327,256.235291 
M188.663452,244.360687 
	C186.191330,244.063599 183.390640,242.888458 181.319687,243.663422 
	C177.695114,245.019760 174.726181,248.646835 171.100677,249.347977 
	C166.776611,250.184219 167.294357,252.074936 167.542114,254.738861 
	C171.479645,253.280807 175.182083,252.230820 178.580032,250.561203 
	C181.972427,248.894272 186.751450,249.700439 188.663452,244.360687 
M175.056473,266.809265 
	C174.134537,267.122986 173.212616,267.436676 172.000137,267.849274 
	C177.659271,273.218842 179.243439,273.148010 184.275848,266.808044 
	C180.973709,266.808044 178.435974,266.808044 175.056473,266.809265 
z"/>
<path fill="#EBEBEB" opacity="1.000000" stroke="none" 
	d="
M142.151672,182.706940 
	C140.626770,180.525085 139.350174,178.613052 137.393280,175.682114 
	C139.531250,175.682114 141.467407,175.179428 141.882004,175.761169 
	C145.387619,180.679932 152.100006,183.189819 153.711502,190.332214 
	C147.424500,190.576294 145.907898,185.333069 142.151672,182.706940 
z"/>
<path fill="#EBEBEB" opacity="1.000000" stroke="none" 
	d="
M216.050537,179.015259 
	C212.119766,183.321198 208.239502,187.267990 204.359253,191.214767 
	C203.821960,190.909225 203.284668,190.603683 202.747391,190.298141 
	C203.002411,188.986572 202.822174,187.283752 203.588226,186.431580 
	C206.800171,182.858521 210.220856,179.459351 213.752136,176.199097 
	C214.432037,175.571396 215.952972,175.854630 217.085938,175.717636 
	C216.757645,176.697128 216.429337,177.676620 216.050537,179.015259 
z"/>
<path fill="#CECECE" opacity="1.000000" stroke="none" 
	d="
M471.676331,182.333633 
	C472.035889,182.962708 471.996796,183.688446 471.600281,185.023193 
	C471.163666,188.934143 471.032135,192.235794 471.013794,195.538071 
	C470.910797,214.061966 470.835144,232.586014 470.750122,251.110001 
	C470.499023,249.712585 470.032562,248.315674 470.029236,246.917664 
	C469.981415,226.851990 469.969910,206.786072 470.050842,186.720627 
	C470.056610,185.288879 470.850311,183.860321 471.676331,182.333633 
z"/>
<path fill="#696968" opacity="1.000000" stroke="none" 
	d="
M321.981995,182.993011 
	C322.318848,184.220367 322.945831,185.446899 322.949402,186.675217 
	C323.010651,207.769501 322.997314,228.864014 322.980988,249.958450 
	C322.980621,250.435928 322.754791,250.913254 322.299713,251.221008 
	C321.970886,228.365250 321.976440,205.679123 321.981995,182.993011 
z"/>
<path fill="#363634" opacity="1.000000" stroke="none" 
	d="
M321.789673,182.991302 
	C321.976440,205.679123 321.970886,228.365250 322.002563,251.517258 
	C322.039825,251.983154 321.617310,251.999649 321.405884,252.002563 
	C321.141205,229.309326 321.087891,206.613159 321.123657,183.455429 
	C321.212769,182.993851 321.597382,182.989594 321.789673,182.991302 
z"/>
<path fill="#646464" opacity="1.000000" stroke="none" 
	d="
M470.770752,251.062988 
	C470.835144,232.586014 470.910797,214.061966 471.013794,195.538071 
	C471.032135,192.235794 471.163666,188.934143 471.576416,185.386200 
	C471.938354,206.373566 471.975128,227.606918 471.966858,248.840271 
	C471.966492,249.769058 471.552979,250.697678 471.024292,251.285965 
	C470.716644,250.945557 470.791351,251.015976 470.770752,251.062988 
z"/>
<path fill="#FCFCFC" opacity="1.000000" stroke="none" 
	d="
M211.452667,211.152527 
	C218.626251,208.728012 228.393661,209.719757 230.469360,213.077850 
	C224.657211,213.077850 219.062485,213.140335 213.472458,213.006485 
	C212.687714,212.987717 211.925995,212.007507 211.452667,211.152527 
z"/>
<path fill="#FEFEFE" opacity="1.000000" stroke="none" 
	d="
M129.405472,209.999512 
	C133.323059,209.998123 136.793030,209.838943 140.235931,210.074722 
	C141.662094,210.172394 143.030334,211.115433 144.424927,211.674026 
	C144.279480,212.065659 144.134033,212.457291 143.988602,212.848923 
	C138.038025,212.848923 132.087448,212.848923 126.136871,212.848923 
	C125.997849,212.519485 125.858826,212.190063 125.719803,211.860626 
	C126.795509,211.240753 127.871223,210.620865 129.405472,209.999512 
z"/>
<path fill="#FEFEFE" opacity="1.000000" stroke="none" 
	d="
M176.832779,163.239471 
	C177.102814,161.820953 177.371735,160.880173 177.640656,159.939407 
	C177.979340,159.988937 178.318008,160.038467 178.656693,160.087997 
	C178.656693,166.078735 178.656693,172.069473 178.656693,178.060211 
	C178.157303,178.101807 177.657898,178.143387 177.158508,178.184967 
	C177.049561,173.362381 176.940613,168.539810 176.832779,163.239471 
z"/>
<path fill="#CECECE" opacity="1.000000" stroke="none" 
	d="
M470.133911,253.282593 
	C470.629059,253.180466 471.055664,253.337662 471.747437,253.712509 
	C471.363556,253.800751 470.714447,253.671341 470.133911,253.282593 
z"/>
<path fill="#343331" opacity="1.000000" stroke="none" 
	d="
M378.668060,210.770416 
	C380.158936,215.859299 381.016449,220.593048 378.444489,225.540619 
	C377.200684,227.933289 378.110962,231.395554 377.011078,233.923248 
	C374.419647,239.878784 369.284607,242.694611 363.860382,241.922745 
	C359.552429,241.309708 353.635803,234.718491 353.175171,229.587540 
	C352.652832,223.769226 352.197601,217.919205 352.220184,212.084946 
	C352.242371,206.353622 354.293945,201.125397 358.405670,197.038193 
	C359.404785,196.045029 361.413300,195.993942 362.992249,195.688507 
	C363.777100,195.536713 364.700012,196.019409 365.458160,195.822067 
	C369.899231,194.666016 373.699310,195.699951 375.562073,199.942719 
	C377.015564,203.253281 377.422943,207.023132 378.668060,210.770416 
z"/>
<path fill="#32312F" opacity="1.000000" stroke="none" 
	d="
M336.070923,232.049652 
	C336.149963,231.677048 336.412354,231.470047 336.674744,231.263046 
	C336.746643,231.517654 336.818542,231.772247 336.770721,232.268295 
	C336.651001,232.509735 336.254272,232.215240 336.070923,232.049652 
z"/>
<path fill="#32312F" opacity="1.000000" stroke="none" 
	d="
M356.635773,254.551010 
	C356.916412,254.337967 357.335236,254.311310 357.754089,254.284668 
	C357.718201,254.509171 357.682281,254.733688 357.366394,255.019409 
	C357.086365,255.080627 356.773987,254.737396 356.635773,254.551010 
z"/>
<path fill="#32312F" opacity="1.000000" stroke="none" 
	d="
M375.104004,254.893982 
	C374.703339,254.811707 374.446747,254.586029 374.190155,254.360336 
	C374.466064,254.295242 374.741974,254.230133 375.266174,254.304230 
	C375.514496,254.443420 375.248077,254.750565 375.104004,254.893982 
z"/>
<path fill="#353432" opacity="1.000000" stroke="none" 
	d="
M425.532684,218.133942 
	C425.581085,211.808212 425.570160,205.481308 425.697083,199.157150 
	C425.795135,194.272446 426.445129,194.566635 431.265015,195.399490 
	C435.619995,196.152008 438.917633,198.053833 439.470154,201.832687 
	C440.279938,207.371094 439.726837,213.216187 433.576874,216.221878 
	C431.755127,217.112228 429.714020,217.553650 427.043396,218.080811 
	C426.053162,218.018524 425.792938,218.076233 425.532684,218.133942 
z"/>
<path fill="#B0B0B0" opacity="1.000000" stroke="none" 
	d="
M425.317322,218.330200 
	C425.792938,218.076233 426.053162,218.018524 426.699951,218.062683 
	C426.636993,218.743912 426.187439,219.323273 425.737885,219.902618 
	C425.525909,219.443909 425.313965,218.985184 425.317322,218.330200 
z"/>
<path fill="#32312F" opacity="1.000000" stroke="none" 
	d="
M456.533752,208.360138 
	C456.539490,208.123962 456.745178,207.747452 457.024780,207.633087 
	C457.098755,207.895248 456.733673,208.219803 456.533752,208.360138 
z"/>
<path fill="#32312F" opacity="1.000000" stroke="none" 
	d="
M456.919983,198.931366 
	C456.842255,199.337860 456.602600,199.590103 456.362915,199.842346 
	C456.291748,199.562897 456.220612,199.283432 456.280762,198.748764 
	C456.412048,198.493561 456.758057,198.777100 456.919983,198.931366 
z"/>
<path fill="#353432" opacity="1.000000" stroke="none" 
	d="
M486.981720,208.938446 
	C486.981720,204.472504 486.981720,200.492966 486.981720,195.084625 
	C490.950073,195.434692 495.661072,194.427872 498.049744,196.332932 
	C504.700104,201.636795 505.278137,205.534546 502.571503,211.488251 
	C500.415680,216.230362 495.878204,218.968384 491.200439,218.916977 
	C487.909485,218.880783 486.740356,217.517105 486.967590,214.411972 
	C487.088593,212.758118 486.984314,211.087769 486.981720,208.938446 
z"/>
<path fill="#353432" opacity="1.000000" stroke="none" 
	d="
M184.459702,188.256134 
	C190.920532,190.471191 195.927216,194.400406 198.988983,199.984055 
	C202.568283,206.511520 203.497253,213.987717 199.995148,220.681839 
	C196.546555,227.273636 191.672791,233.119812 187.424347,239.293137 
	C186.857956,239.194778 186.291565,239.096420 185.725159,238.998062 
	C186.000381,236.915817 186.036194,234.766510 186.597046,232.764282 
	C188.100037,227.398453 189.910950,222.118652 191.399414,216.749191 
	C191.713379,215.616577 191.556198,213.945816 190.887802,213.095444 
	C190.460800,212.552155 188.677170,213.206558 187.534653,213.062653 
	C185.923553,212.859756 184.342896,212.415024 182.629074,212.047928 
	C181.310791,213.126236 179.666870,215.493088 177.849365,215.634888 
	C176.389313,215.748825 174.718948,213.167236 172.887772,211.558487 
	C171.729355,212.471680 170.220810,213.660919 168.668854,214.884354 
	C167.637131,213.997314 166.685608,213.179230 165.192703,211.895660 
	C164.803467,213.810791 163.993439,215.324387 164.342667,216.490952 
	C166.194916,222.678055 168.438370,228.747894 170.297913,234.933029 
	C170.678192,236.197952 169.996887,237.782028 169.804916,239.218994 
	C169.369263,239.292297 168.933609,239.365601 168.497955,239.438919 
	C164.356888,233.271378 159.907120,227.284836 156.156906,220.888138 
	C151.952301,213.716415 154.469131,201.027512 160.571457,195.256561 
	C165.247772,190.834213 170.434891,188.611023 176.194107,187.276428 
	C178.610626,186.716446 181.440109,187.938614 184.459702,188.256134 
z"/>
<path fill="#363634" opacity="1.000000" stroke="none" 
	d="
M171.169098,227.180099 
	C170.851013,224.797729 170.433060,222.822418 170.233002,220.825287 
	C170.154739,220.044235 170.307938,218.829102 170.811279,218.492065 
	C171.677414,217.912125 173.411285,217.276001 173.890335,217.691162 
	C176.833481,220.241837 179.133224,220.257004 182.315414,217.643768 
	C183.809769,216.416580 186.397278,217.967712 185.710953,220.867599 
	C184.662445,225.297745 183.381378,229.672348 182.260757,234.086197 
	C181.881958,235.578278 181.690475,237.117889 181.347916,238.994553 
	C179.382797,239.101425 177.094833,239.225845 175.472534,239.314056 
	C173.999786,235.309708 172.578079,231.444061 171.169098,227.180099 
z"/>
<path fill="#41403F" opacity="1.000000" stroke="none" 
	d="
M172.805405,256.261627 
	C178.181290,254.648682 183.184097,253.009384 188.447845,251.284592 
	C188.447845,252.679153 188.447845,254.040451 188.447845,255.297043 
	C183.889816,257.997375 177.422363,257.189514 173.578751,262.839050 
	C172.005981,262.839050 169.704758,262.839050 167.490067,262.839050 
	C166.039825,258.222565 170.077652,257.879333 172.805405,256.261627 
z"/>
<path fill="#454543" opacity="1.000000" stroke="none" 
	d="
M188.632690,244.769501 
	C186.751450,249.700439 181.972427,248.894272 178.580032,250.561203 
	C175.182083,252.230820 171.479645,253.280807 167.542114,254.738861 
	C167.294357,252.074936 166.776611,250.184219 171.100677,249.347977 
	C174.726181,248.646835 177.695114,245.019760 181.319687,243.663422 
	C183.390640,242.888458 186.191330,244.063599 188.632690,244.769501 
z"/>
<path fill="#363634" opacity="1.000000" stroke="none" 
	d="
M175.477356,266.808655 
	C178.435974,266.808044 180.973709,266.808044 184.275848,266.808044 
	C179.243439,273.148010 177.659271,273.218842 172.000137,267.849274 
	C173.212616,267.436676 174.134537,267.122986 175.477356,266.808655 
z"/>
</svg>