<svg version="1.1" id="Layer_1" xmlns="http://www.w3.org/2000/svg" xmlns:xlink="http://www.w3.org/1999/xlink" x="0px" y="0px"
	 width="100%" viewBox="0 0 658 413" enable-background="new 0 0 658 413" xml:space="preserve">
<path fill="#32312F" opacity="1.000000" stroke="none" 
	d="
M616.000000,414.000000 
	C410.714447,414.000000 205.928879,414.000000 1.071661,414.000000 
	C1.071661,276.413239 1.071661,138.826447 1.071661,1.119823 
	C220.333298,1.119823 439.666626,1.119823 658.997375,1.113296 
	C658.994751,138.737839 658.994751,276.368927 658.992188,414.000000 
	C644.826355,414.000000 630.663208,414.000000 616.000000,414.000000 
M323.634186,251.390839 
	C323.754852,250.913467 323.980743,250.436157 323.981110,249.958679 
	C323.997437,228.864059 324.010803,207.769379 323.949554,186.674911 
	C323.945984,185.446655 323.318787,184.220200 322.597321,182.989487 
	C322.597321,182.989487 322.212830,182.993805 321.822021,182.254517 
	C316.746582,181.674774 311.671143,181.095032 305.903625,180.436234 
	C305.903625,193.763260 305.903625,205.929825 305.903625,218.815414 
	C304.521332,218.034027 303.666168,217.845169 303.346008,217.326248 
	C296.641083,206.459320 290.070282,195.508667 283.259521,184.709152 
	C282.259766,183.123901 280.260986,181.334824 278.578156,181.174393 
	C273.972015,180.735275 268.804871,179.941681 264.806305,181.587616 
	C262.192871,182.663406 261.240417,187.752472 259.515442,191.028885 
	C259.213135,191.603043 258.769409,192.102783 258.025665,193.152603 
	C261.204041,193.608429 264.016174,194.011719 267.157654,194.462250 
	C267.157654,214.189987 267.157654,233.941040 267.157654,253.961533 
	C272.572174,253.961533 277.643433,253.961533 283.072327,253.961533 
	C283.072327,240.952576 283.072327,228.233627 283.072327,215.514694 
	C283.496399,215.320236 283.920471,215.125793 284.344543,214.931335 
	C286.221313,217.811920 288.173126,220.646805 289.960205,223.582031 
	C294.485748,231.015228 299.188599,238.356796 303.342621,245.994919 
	C306.958496,252.643524 313.338684,255.995346 320.631165,254.045670 
	C321.287201,253.870270 321.679657,252.708954 322.617218,251.999695 
	C322.617218,251.999695 323.039642,251.983185 323.634186,251.390839 
M471.791321,251.016006 
	C471.791321,251.016006 471.716614,250.945572 471.216766,251.924332 
	C471.211975,252.290634 471.207184,252.656937 471.065277,253.541870 
	C471.714386,253.671326 472.363495,253.800781 473.925659,254.141907 
	C478.522308,254.141907 483.118988,254.141907 487.989105,254.141907 
	C487.989105,248.129852 488.018646,242.661316 487.978333,237.193268 
	C487.953125,233.774124 489.246307,231.569946 492.988678,232.085007 
	C497.689117,232.731903 502.034424,231.575195 506.480682,230.301956 
	C510.937164,229.025833 520.167297,220.693039 520.463013,216.811066 
	C520.845703,211.786438 521.093201,206.738052 521.087036,201.700287 
	C521.076965,193.477432 513.571289,183.563568 505.501038,182.168716 
	C494.761444,180.312531 483.870972,178.793655 472.277618,182.430161 
	C471.850281,183.860184 471.056519,185.288742 471.050751,186.720474 
	C470.969788,206.785965 470.981323,226.851944 471.029083,246.917664 
	C471.032410,248.315689 471.498871,249.712585 471.791321,251.016006 
M458.792542,207.462265 
	C459.411163,200.073013 457.051300,193.501968 452.102142,188.276077 
	C447.147186,183.044159 440.017334,181.083710 433.280426,180.493774 
	C425.353790,179.799652 417.251770,181.108032 409.842560,181.514236 
	C409.842560,194.263855 409.842560,206.197510 409.842560,218.131180 
	C409.842560,230.051422 409.842560,241.971664 409.842560,254.011658 
	C415.771118,254.011658 421.040253,254.011658 426.888306,254.011658 
	C426.888306,244.074677 426.888306,234.374512 426.888306,224.041519 
	C428.283112,224.712738 429.291962,224.856155 429.587585,225.392593 
	C433.113708,231.790894 436.321228,238.374680 440.065521,244.638916 
	C442.132690,248.097244 444.480621,252.700775 447.727661,253.824646 
	C452.286316,255.402512 457.799255,254.223297 464.259369,254.223297 
	C459.109406,245.485291 454.939819,237.541275 449.877960,230.213608 
	C447.577759,226.883789 446.179840,224.993195 450.016449,222.076584 
	C454.417450,218.730896 456.516937,213.902573 457.733673,208.219894 
	C457.733673,208.219894 458.098450,207.895432 458.792542,207.462265 
M337.254272,232.215256 
	C337.254272,232.215256 337.650848,232.509781 337.664917,233.214081 
	C338.531403,235.841522 339.060974,238.645569 340.328125,241.063004 
	C343.990601,248.050140 349.715759,252.588272 357.774017,254.737366 
	C357.774017,254.737366 358.086273,255.080490 358.416016,255.715652 
	C359.718048,255.529984 361.014862,255.244339 362.322998,255.176346 
	C367.430054,254.910873 372.931793,255.847946 377.566315,254.249329 
	C386.436859,251.189529 393.320435,245.417191 395.201599,235.301605 
	C396.178925,230.046234 397.735657,224.899826 398.762787,219.651764 
	C399.058563,218.140533 398.476868,216.437531 398.199158,214.839554 
	C397.901672,213.127625 397.345398,211.451416 397.158081,209.731735 
	C396.860565,207.000854 397.140198,204.163345 396.534668,201.517670 
	C394.439087,192.361679 382.397736,180.835312 373.400848,180.449326 
	C366.788177,180.165634 359.984375,181.174179 353.490601,182.618103 
	C350.251526,183.338333 347.014893,185.854919 344.648224,188.376526 
	C337.703583,195.775925 335.907654,205.363770 335.345123,214.988098 
	C335.018829,220.570999 336.319275,226.248978 337.254272,232.215256 
M162.981354,248.948166 
	C162.412704,251.925842 166.000992,255.265945 162.195541,257.961426 
	C162.563339,258.459900 162.948074,258.946899 163.296249,259.458710 
	C165.848953,263.211060 168.346527,267.002228 170.966736,270.706696 
	C171.943085,272.087067 172.967285,273.694977 174.372086,274.463715 
	C179.293137,277.156555 184.046082,275.528442 187.124374,270.749634 
	C188.504013,268.607849 190.480255,266.859161 192.045441,264.824188 
	C192.768768,263.883728 193.285522,262.728058 193.665909,261.592896 
	C194.295288,259.714691 194.738480,257.774109 195.260132,255.859833 
	C195.088654,255.893677 194.917160,255.927505 194.745682,255.961349 
	C194.745682,253.362717 194.745682,250.764084 194.745682,248.165451 
	C193.959259,244.476822 190.428818,241.168930 195.273163,236.783279 
	C198.082687,234.239746 199.742569,230.458389 202.082443,227.356781 
	C205.998642,222.165680 206.191986,216.294022 206.228241,210.083389 
	C206.275146,202.046173 198.470993,188.666611 190.994156,186.509232 
	C180.475174,183.474045 170.667801,183.171799 160.931763,190.741821 
	C149.328323,199.763809 148.673920,220.627167 158.333893,230.261398 
	C163.117218,235.031967 167.279358,240.874893 162.981354,248.948166 
M142.355438,181.953934 
	C146.260422,184.586121 148.035187,190.205338 154.746933,190.503204 
	C153.097519,183.170120 146.363235,180.675247 142.866913,175.739029 
	C142.455841,175.158661 140.517273,175.660217 138.765045,175.660217 
	C140.137283,178.192261 141.005157,179.793640 142.355438,181.953934 
M212.550247,184.018982 
	C214.698303,181.649918 216.846344,179.280853 220.078384,175.716278 
	C217.396881,175.847519 215.761475,175.424225 214.856018,176.052658 
	C208.431473,180.511673 203.573563,187.384155 204.747070,191.306473 
	C207.387878,188.849121 209.713852,186.684723 212.550247,184.018982 
M228.003891,213.083466 
	C229.084930,213.083466 230.165985,213.083466 231.509155,213.083466 
	C229.125641,209.369614 217.685791,208.717621 212.246841,211.588531 
	C212.230164,212.086273 212.213486,212.584030 212.196808,213.081772 
	C217.168259,213.081772 222.139709,213.081772 228.003891,213.083466 
M137.431808,209.997681 
	C128.375397,209.997681 128.375397,209.997681 127.444199,212.683899 
	C133.297028,212.683899 139.188690,212.683899 145.080353,212.683899 
	C145.146759,212.130417 145.213181,211.576920 145.279602,211.023438 
	C142.977234,210.681519 140.674866,210.339600 137.431808,209.997681 
M180.073502,175.336563 
	C180.031677,170.214798 180.600479,165.032959 179.764084,159.989380 
	C179.308212,160.028381 178.852356,160.067398 178.396500,160.106400 
	C178.396500,166.096222 178.396500,172.086060 178.396500,178.075882 
	C178.738281,178.127106 179.080078,178.178345 179.421860,178.229568 
	C179.618958,177.586212 179.816040,176.942856 180.073502,175.336563 
z"/>
<path fill="#FDFDFD" opacity="1.000000" stroke="none" 
	d="
M322.194519,252.005508 
	C321.679657,252.708954 321.287201,253.870270 320.631165,254.045670 
	C313.338684,255.995346 306.958496,252.643524 303.342621,245.994919 
	C299.188599,238.356796 294.485748,231.015228 289.960205,223.582031 
	C288.173126,220.646805 286.221313,217.811920 284.344543,214.931335 
	C283.920471,215.125793 283.496399,215.320236 283.072327,215.514694 
	C283.072327,228.233627 283.072327,240.952576 283.072327,253.961533 
	C277.643433,253.961533 272.572174,253.961533 267.157654,253.961533 
	C267.157654,233.941040 267.157654,214.189987 267.157654,194.462250 
	C264.016174,194.011719 261.204041,193.608429 258.025665,193.152603 
	C258.769409,192.102783 259.213135,191.603043 259.515442,191.028885 
	C261.240417,187.752472 262.192871,182.663406 264.806305,181.587616 
	C268.804871,179.941681 273.972015,180.735275 278.578156,181.174393 
	C280.260986,181.334824 282.259766,183.123901 283.259521,184.709152 
	C290.070282,195.508667 296.641083,206.459320 303.346008,217.326248 
	C303.666168,217.845169 304.521332,218.034027 305.903625,218.815414 
	C305.903625,205.929825 305.903625,193.763260 305.903625,180.436234 
	C311.671143,181.095032 316.746582,181.674774 321.928284,183.085739 
	C322.087860,206.613144 322.141174,229.309326 322.194519,252.005508 
z"/>
<path fill="#FDFDFD" opacity="1.000000" stroke="none" 
	d="
M336.887665,231.884171 
	C336.319275,226.248978 335.018829,220.570999 335.345123,214.988098 
	C335.907654,205.363770 337.703583,195.775925 344.648224,188.376526 
	C347.014893,185.854919 350.251526,183.338333 353.490601,182.618103 
	C359.984375,181.174179 366.788177,180.165634 373.400848,180.449326 
	C382.397736,180.835312 394.439087,192.361679 396.534668,201.517670 
	C397.140198,204.163345 396.860565,207.000854 397.158081,209.731735 
	C397.345398,211.451416 397.901672,213.127625 398.199158,214.839554 
	C398.476868,216.437531 399.058563,218.140533 398.762787,219.651764 
	C397.735657,224.899826 396.178925,230.046234 395.201599,235.301605 
	C393.320435,245.417191 386.436859,251.189529 377.566315,254.249329 
	C372.931793,255.847946 367.430054,254.910873 362.322998,255.176346 
	C361.014862,255.244339 359.718048,255.529984 358.531128,255.336899 
	C358.682159,254.733658 358.718079,254.509186 358.754028,254.284698 
	C358.335236,254.311401 357.916412,254.338089 357.497620,254.364777 
	C349.715759,252.588272 343.990601,248.050140 340.328125,241.063004 
	C339.060974,238.645569 338.531403,235.841522 337.777649,232.620499 
	C337.818481,231.772308 337.746613,231.517715 337.674744,231.263107 
	C337.412384,231.470123 337.150024,231.677139 336.887665,231.884171 
M354.753662,207.723022 
	C354.192352,208.801529 353.119354,209.896439 353.153320,210.955841 
	C353.361603,217.454239 353.384583,224.008942 354.330322,230.417801 
	C355.121002,235.775772 358.842499,239.908432 363.818176,241.671265 
	C368.391632,243.291565 372.352875,241.216812 375.766998,237.354675 
	C379.907990,232.670364 379.692841,226.839020 380.723480,221.492767 
	C381.447388,217.737640 380.024353,213.483887 379.175568,209.535431 
	C378.410706,205.977524 377.415741,202.407776 375.997437,199.065979 
	C373.861237,194.032669 369.234863,196.027161 365.387848,195.786224 
	C359.583038,195.422684 354.447205,200.586365 354.753662,207.723022 
z"/>
<path fill="#FCFCFC" opacity="1.000000" stroke="none" 
	d="
M457.334106,208.500458 
	C456.516937,213.902573 454.417450,218.730896 450.016449,222.076584 
	C446.179840,224.993195 447.577759,226.883789 449.877960,230.213608 
	C454.939819,237.541275 459.109406,245.485291 464.259369,254.223297 
	C457.799255,254.223297 452.286316,255.402512 447.727661,253.824646 
	C444.480621,252.700775 442.132690,248.097244 440.065521,244.638916 
	C436.321228,238.374680 433.113708,231.790894 429.587585,225.392593 
	C429.291962,224.856155 428.283112,224.712738 426.888306,224.041519 
	C426.888306,234.374512 426.888306,244.074677 426.888306,254.011658 
	C421.040253,254.011658 415.771118,254.011658 409.842560,254.011658 
	C409.842560,241.971664 409.842560,230.051422 409.842560,218.131180 
	C409.842560,206.197510 409.842560,194.263855 409.842560,181.514236 
	C417.251770,181.108032 425.353790,179.799652 433.280426,180.493774 
	C440.017334,181.083710 447.147186,183.044159 452.102142,188.276077 
	C457.051300,193.501968 459.411163,200.073013 458.371613,207.416718 
	C457.745148,207.747604 457.539642,208.124039 457.334106,208.500458 
M428.776184,218.198517 
	C429.513977,218.234863 430.455566,218.585098 430.957977,218.258896 
	C435.884705,215.060257 441.452332,212.818008 440.437653,204.759232 
	C439.581848,197.962265 434.345886,193.012360 427.184387,194.669632 
	C426.879822,195.061203 426.575256,195.452774 426.610352,196.745224 
	C426.642731,203.849808 426.675110,210.954407 426.180664,218.461670 
	C426.524139,218.976837 426.867645,219.492004 427.211121,220.007141 
	C427.504395,219.385712 427.797638,218.764267 428.776184,218.198517 
z"/>
<path fill="#FEFEFE" opacity="1.000000" stroke="none" 
	d="
M471.202393,253.023239 
	C471.207184,252.656937 471.211975,252.290634 471.774353,251.775391 
	C472.552979,250.697769 472.966461,249.769165 472.966827,248.840393 
	C472.975159,227.607025 472.938354,206.373627 472.933838,184.777222 
	C472.996796,183.688446 473.035889,182.962677 473.075012,182.236908 
	C483.870972,178.793655 494.761444,180.312531 505.501038,182.168716 
	C513.571289,183.563568 521.076965,193.477432 521.087036,201.700287 
	C521.093201,206.738052 520.845703,211.786438 520.463013,216.811066 
	C520.167297,220.693039 510.937164,229.025833 506.480682,230.301956 
	C502.034424,231.575195 497.689117,232.731903 492.988678,232.085007 
	C489.246307,231.569946 487.953125,233.774124 487.978333,237.193268 
	C488.018646,242.661316 487.989105,248.129852 487.989105,254.141907 
	C483.118988,254.141907 478.522308,254.141907 473.203918,253.818390 
	C472.055603,253.337662 471.629028,253.180450 471.202393,253.023239 
M503.497498,201.175629 
	C497.154449,194.001862 495.488617,193.476440 488.010223,196.475952 
	C488.010223,202.652298 487.881714,208.939575 488.122681,215.212677 
	C488.168762,216.412842 489.452972,218.278061 490.537476,218.605331 
	C495.916931,220.228668 499.750244,217.149658 502.609131,213.266846 
	C505.062592,209.934708 506.123016,205.913284 503.497498,201.175629 
z"/>
<path fill="#F3F3F3" opacity="1.000000" stroke="none" 
	d="
M163.314392,248.732025 
	C167.279358,240.874893 163.117218,235.031967 158.333893,230.261398 
	C148.673920,220.627167 149.328323,199.763809 160.931763,190.741821 
	C170.667801,183.171799 180.475174,183.474045 190.994156,186.509232 
	C198.470993,188.666611 206.275146,202.046173 206.228241,210.083389 
	C206.191986,216.294022 205.998642,222.165680 202.082443,227.356781 
	C199.742569,230.458389 198.082687,234.239746 195.273163,236.783279 
	C190.428818,241.168930 193.959259,244.476822 194.745682,248.165451 
	C194.745682,250.764084 194.745682,253.362717 194.745682,255.961349 
	C194.917160,255.927505 195.088654,255.893677 195.260132,255.859833 
	C194.738480,257.774109 194.295288,259.714691 193.665909,261.592896 
	C193.285522,262.728058 192.768768,263.883728 192.045441,264.824188 
	C190.480255,266.859161 188.504013,268.607849 187.124374,270.749634 
	C184.046082,275.528442 179.293137,277.156555 174.372086,274.463715 
	C172.967285,273.694977 171.943085,272.087067 170.966736,270.706696 
	C168.346527,267.002228 165.848953,263.211060 163.296249,259.458710 
	C162.948074,258.946899 162.563339,258.459900 162.195541,257.961426 
	C166.000992,255.265945 162.412704,251.925842 163.314392,248.732025 
M186.356766,213.297363 
	C187.000137,213.315414 187.653305,213.412552 188.284760,213.334351 
	C189.452805,213.189667 191.152634,212.386505 191.642593,212.866516 
	C192.398865,213.607422 192.819412,215.339020 192.515472,216.402725 
	C191.149353,221.184036 189.295898,225.828354 187.985657,230.622513 
	C187.236816,233.362549 184.507492,236.391846 188.280350,239.408340 
	C190.166260,236.538452 191.534424,233.455414 193.763657,231.238098 
	C203.199326,221.852875 206.239700,209.863770 198.541748,197.857544 
	C193.867340,190.567032 186.345627,186.908600 178.000473,187.370316 
	C171.919235,187.706772 166.315674,190.498886 161.494263,195.386658 
	C154.897125,202.074631 153.140472,213.313721 156.908218,220.614410 
	C160.350159,227.283813 165.272293,233.189316 170.336487,240.592804 
	C170.993210,237.915955 171.869080,236.445068 171.544281,235.321167 
	C169.746475,229.100220 167.575684,222.987717 165.731903,216.778885 
	C165.345886,215.479019 165.796051,213.930817 165.898987,211.654938 
	C167.685562,213.182297 168.635696,213.994553 169.672531,214.880936 
	C171.208542,213.671097 172.716156,212.483627 174.236511,211.286118 
	C177.718964,216.894424 178.620163,216.944733 182.791962,212.390747 
	C183.142288,212.008316 184.712891,212.743759 186.356766,213.297363 
M172.842712,228.015610 
	C173.924011,231.732819 175.005295,235.450027 176.126526,239.304550 
	C177.936539,239.219696 180.217133,239.112778 182.198303,239.019897 
	C182.656845,237.079605 183.022018,235.450912 183.428055,233.832474 
	C184.497650,229.569290 185.672684,225.330261 186.635437,221.043350 
	C187.315308,218.016022 185.369385,216.360336 183.066895,217.853195 
	C180.027161,219.824051 177.823227,219.957260 175.030731,217.831955 
	C174.432968,217.377014 172.720352,217.780396 171.951248,218.359436 
	C171.390778,218.781418 171.344864,220.154724 171.406555,221.081482 
	C171.551514,223.258362 171.898499,225.421768 172.842712,228.015610 
M189.776886,255.277328 
	C189.683319,253.969055 189.589752,252.660797 189.493362,251.312973 
	C184.294464,252.976868 179.062302,254.422287 174.017639,256.356689 
	C171.240662,257.421570 167.042572,257.789856 168.478012,262.830658 
	C170.649063,262.830658 172.955139,262.830658 174.490479,262.830658 
	C178.461258,257.737732 184.190750,257.514984 189.776886,255.277328 
M184.069580,249.152252 
	C189.350479,247.163116 189.350479,247.163116 189.217438,243.370819 
	C186.902222,243.370819 184.285553,242.676193 182.337265,243.521698 
	C178.758865,245.074661 175.744995,247.916000 172.179245,249.513901 
	C168.302368,251.251205 168.145264,250.900620 168.844269,254.293976 
	C173.755508,252.800735 178.730789,251.288010 184.069580,249.152252 
M180.260437,266.809326 
	C177.946808,266.952179 175.633179,267.095062 172.574753,267.283905 
	C178.486389,273.216370 179.798508,273.204437 185.063553,267.482971 
	C183.486374,267.215027 182.293442,267.012360 180.260437,266.809326 
z"/>
<path fill="#EBEBEB" opacity="1.000000" stroke="none" 
	d="
M142.114227,181.674469 
	C141.005157,179.793640 140.137283,178.192261 138.765045,175.660217 
	C140.517273,175.660217 142.455841,175.158661 142.866913,175.739029 
	C146.363235,180.675247 153.097519,183.170120 154.746933,190.503204 
	C148.035187,190.205338 146.260422,184.586121 142.114227,181.674469 
z"/>
<path fill="#EBEBEB" opacity="1.000000" stroke="none" 
	d="
M212.295029,184.269653 
	C209.713852,186.684723 207.387878,188.849121 204.747070,191.306473 
	C203.573563,187.384155 208.431473,180.511673 214.856018,176.052658 
	C215.761475,175.424225 217.396881,175.847519 220.078384,175.716278 
	C216.846344,179.280853 214.698303,181.649918 212.295029,184.269653 
z"/>
<path fill="#CECECE" opacity="1.000000" stroke="none" 
	d="
M472.676300,182.333527 
	C473.035889,182.962677 472.996796,183.688446 472.600281,185.023193 
	C472.163605,188.934128 472.032135,192.235779 472.013763,195.538055 
	C471.910767,214.061966 471.835052,232.585999 471.750000,251.110001 
	C471.498871,249.712585 471.032410,248.315689 471.029083,246.917664 
	C470.981323,226.851944 470.969788,206.785965 471.050751,186.720474 
	C471.056519,185.288742 471.850281,183.860184 472.676300,182.333527 
z"/>
<path fill="#696968" opacity="1.000000" stroke="none" 
	d="
M322.981812,182.992905 
	C323.318787,184.220200 323.945984,185.446655 323.949554,186.674911 
	C324.010803,207.769379 323.997437,228.864059 323.981110,249.958679 
	C323.980743,250.436157 323.754852,250.913467 323.299713,251.221115 
	C322.970764,228.365234 322.976288,205.679062 322.981812,182.992905 
z"/>
<path fill="#363634" opacity="1.000000" stroke="none" 
	d="
M322.789551,182.991196 
	C322.976288,205.679062 322.970764,228.365234 323.002441,251.517288 
	C323.039642,251.983185 322.617218,251.999695 322.405853,252.002594 
	C322.141174,229.309326 322.087860,206.613144 322.123688,183.455383 
	C322.212830,182.993805 322.597321,182.989487 322.789551,182.991196 
z"/>
<path fill="#646464" opacity="1.000000" stroke="none" 
	d="
M471.770660,251.063004 
	C471.835052,232.585999 471.910767,214.061966 472.013763,195.538055 
	C472.032135,192.235779 472.163605,188.934128 472.576416,185.386215 
	C472.938354,206.373627 472.975159,227.607025 472.966827,248.840393 
	C472.966461,249.769165 472.552979,250.697769 472.024261,251.286011 
	C471.716614,250.945572 471.791321,251.016006 471.770660,251.063004 
z"/>
<path fill="#FCFCFC" opacity="1.000000" stroke="none" 
	d="
M227.557526,213.082611 
	C222.139709,213.081772 217.168259,213.081772 212.196808,213.081772 
	C212.213486,212.584030 212.230164,212.086273 212.246841,211.588531 
	C217.685791,208.717621 229.125641,209.369614 231.509155,213.083466 
	C230.165985,213.083466 229.084930,213.083466 227.557526,213.082611 
z"/>
<path fill="#FEFEFE" opacity="1.000000" stroke="none" 
	d="
M137.902161,209.997681 
	C140.674866,210.339600 142.977234,210.681519 145.279602,211.023438 
	C145.213181,211.576920 145.146759,212.130417 145.080353,212.683899 
	C139.188690,212.683899 133.297028,212.683899 127.444199,212.683899 
	C128.375397,209.997681 128.375397,209.997681 137.902161,209.997681 
z"/>
<path fill="#FEFEFE" opacity="1.000000" stroke="none" 
	d="
M180.043304,175.818024 
	C179.816040,176.942856 179.618958,177.586212 179.421860,178.229568 
	C179.080078,178.178345 178.738281,178.127106 178.396500,178.075882 
	C178.396500,172.086060 178.396500,166.096222 178.396500,160.106400 
	C178.852356,160.067398 179.308212,160.028381 179.764084,159.989380 
	C180.600479,165.032959 180.031677,170.214798 180.043304,175.818024 
z"/>
<path fill="#CECECE" opacity="1.000000" stroke="none" 
	d="
M471.133850,253.282562 
	C471.629028,253.180450 472.055603,253.337662 472.747406,253.712555 
	C472.363495,253.800781 471.714386,253.671326 471.133850,253.282562 
z"/>
<path fill="#343331" opacity="1.000000" stroke="none" 
	d="
M354.566650,207.382202 
	C354.447205,200.586365 359.583038,195.422684 365.387848,195.786224 
	C369.234863,196.027161 373.861237,194.032669 375.997437,199.065979 
	C377.415741,202.407776 378.410706,205.977524 379.175568,209.535431 
	C380.024353,213.483887 381.447388,217.737640 380.723480,221.492767 
	C379.692841,226.839020 379.907990,232.670364 375.766998,237.354675 
	C372.352875,241.216812 368.391632,243.291565 363.818176,241.671265 
	C358.842499,239.908432 355.121002,235.775772 354.330322,230.417801 
	C353.384583,224.008942 353.361603,217.454239 353.153320,210.955841 
	C353.119354,209.896439 354.192352,208.801529 354.566650,207.382202 
z"/>
<path fill="#32312F" opacity="1.000000" stroke="none" 
	d="
M337.070984,232.049713 
	C337.150024,231.677139 337.412384,231.470123 337.674744,231.263107 
	C337.746613,231.517715 337.818481,231.772308 337.770630,232.268341 
	C337.650848,232.509781 337.254272,232.215256 337.070984,232.049713 
z"/>
<path fill="#32312F" opacity="1.000000" stroke="none" 
	d="
M357.635803,254.551071 
	C357.916412,254.338089 358.335236,254.311401 358.754028,254.284698 
	C358.718079,254.509186 358.682159,254.733658 358.366272,255.019318 
	C358.086273,255.080490 357.774017,254.737366 357.635803,254.551071 
z"/>
<path fill="#353432" opacity="1.000000" stroke="none" 
	d="
M427.651306,194.794708 
	C434.345886,193.012360 439.581848,197.962265 440.437653,204.759232 
	C441.452332,212.818008 435.884705,215.060257 430.957977,218.258896 
	C430.455566,218.585098 429.513977,218.234863 428.092529,218.070175 
	C427.175049,217.980881 426.941284,218.019943 426.707489,218.058990 
	C426.675110,210.954407 426.642731,203.849808 426.843323,196.349365 
	C427.267975,195.567261 427.459656,195.180984 427.651306,194.794708 
z"/>
<path fill="#A6A6A6" opacity="1.000000" stroke="none" 
	d="
M426.444092,218.260330 
	C426.941284,218.019943 427.175049,217.980881 427.749878,218.042328 
	C427.797638,218.764267 427.504395,219.385712 427.211121,220.007141 
	C426.867645,219.492004 426.524139,218.976837 426.444092,218.260330 
z"/>
<path fill="#A6A6A6" opacity="1.000000" stroke="none" 
	d="
M427.417847,194.732178 
	C427.459656,195.180984 427.267975,195.567261 426.673523,195.898926 
	C426.575256,195.452774 426.879822,195.061203 427.417847,194.732178 
z"/>
<path fill="#32312F" opacity="1.000000" stroke="none" 
	d="
M457.533875,208.360168 
	C457.539642,208.124039 457.745148,207.747604 458.024567,207.633301 
	C458.098450,207.895432 457.733673,208.219894 457.533875,208.360168 
z"/>
<path fill="#353432" opacity="1.000000" stroke="none" 
	d="
M503.663300,201.493347 
	C506.123016,205.913284 505.062592,209.934708 502.609131,213.266846 
	C499.750244,217.149658 495.916931,220.228668 490.537476,218.605331 
	C489.452972,218.278061 488.168762,216.412842 488.122681,215.212677 
	C487.881714,208.939575 488.010223,202.652298 488.010223,196.475952 
	C495.488617,193.476440 497.154449,194.001862 503.663300,201.493347 
z"/>
<path fill="#353432" opacity="1.000000" stroke="none" 
	d="
M186.036652,213.128601 
	C184.712891,212.743759 183.142288,212.008316 182.791962,212.390747 
	C178.620163,216.944733 177.718964,216.894424 174.236511,211.286118 
	C172.716156,212.483627 171.208542,213.671097 169.672531,214.880936 
	C168.635696,213.994553 167.685562,213.182297 165.898987,211.654938 
	C165.796051,213.930817 165.345886,215.479019 165.731903,216.778885 
	C167.575684,222.987717 169.746475,229.100220 171.544281,235.321167 
	C171.869080,236.445068 170.993210,237.915955 170.336487,240.592804 
	C165.272293,233.189316 160.350159,227.283813 156.908218,220.614410 
	C153.140472,213.313721 154.897125,202.074631 161.494263,195.386658 
	C166.315674,190.498886 171.919235,187.706772 178.000473,187.370316 
	C186.345627,186.908600 193.867340,190.567032 198.541748,197.857544 
	C206.239700,209.863770 203.199326,221.852875 193.763657,231.238098 
	C191.534424,233.455414 190.166260,236.538452 188.280350,239.408340 
	C184.507492,236.391846 187.236816,233.362549 187.985657,230.622513 
	C189.295898,225.828354 191.149353,221.184036 192.515472,216.402725 
	C192.819412,215.339020 192.398865,213.607422 191.642593,212.866516 
	C191.152634,212.386505 189.452805,213.189667 188.284760,213.334351 
	C187.653305,213.412552 187.000137,213.315414 186.036652,213.128601 
z"/>
<path fill="#363634" opacity="1.000000" stroke="none" 
	d="
M172.503204,227.803131 
	C171.898499,225.421768 171.551514,223.258362 171.406555,221.081482 
	C171.344864,220.154724 171.390778,218.781418 171.951248,218.359436 
	C172.720352,217.780396 174.432968,217.377014 175.030731,217.831955 
	C177.823227,219.957260 180.027161,219.824051 183.066895,217.853195 
	C185.369385,216.360336 187.315308,218.016022 186.635437,221.043350 
	C185.672684,225.330261 184.497650,229.569290 183.428055,233.832474 
	C183.022018,235.450912 182.656845,237.079605 182.198303,239.019897 
	C180.217133,239.112778 177.936539,239.219696 176.126526,239.304550 
	C175.005295,235.450027 173.924011,231.732819 172.503204,227.803131 
z"/>
<path fill="#41403F" opacity="1.000000" stroke="none" 
	d="
M189.453796,255.516602 
	C184.190750,257.514984 178.461258,257.737732 174.490479,262.830658 
	C172.955139,262.830658 170.649063,262.830658 168.478012,262.830658 
	C167.042572,257.789856 171.240662,257.421570 174.017639,256.356689 
	C179.062302,254.422287 184.294464,252.976868 189.493362,251.312973 
	C189.589752,252.660797 189.683319,253.969055 189.453796,255.516602 
z"/>
<path fill="#454543" opacity="1.000000" stroke="none" 
	d="
M183.887817,249.463776 
	C178.730789,251.288010 173.755508,252.800735 168.844269,254.293976 
	C168.145264,250.900620 168.302368,251.251205 172.179245,249.513901 
	C175.744995,247.916000 178.758865,245.074661 182.337265,243.521698 
	C184.285553,242.676193 186.902222,243.370819 189.217499,243.363937 
	C189.350479,247.163116 189.350479,247.163116 183.887817,249.463776 
z"/>
<path fill="#363634" opacity="1.000000" stroke="none" 
	d="
M180.680466,266.809509 
	C182.293442,267.012360 183.486374,267.215027 185.063553,267.482971 
	C179.798508,273.204437 178.486389,273.216370 172.574753,267.283905 
	C175.633179,267.095062 177.946808,266.952179 180.680466,266.809509 
z"/>
</svg>